REM DIRINDEX 1\3,1\2\4,1\2\5,1\2\6
REM DIRNAME cjc137,folder01,folder02,folder03,folder04,folder05
TITLE ""
FILE "038.mp3" MP3
  TRACK 01 AUDIO
    TITLE "0:"
    INDEX 01 00:00:00
  TRACK 02 AUDIO
    TITLE "4:cjc137_1557"
    INDEX 01 00:00:03
  TRACK 03 AUDIO
    TITLE "0:"
    INDEX 01 00:01:05
  TRACK 04 AUDIO
    TITLE "6:cjc137_1558"
    INDEX 01 00:01:17
  TRACK 05 AUDIO
    TITLE "0:"
    INDEX 01 00:02:26
  TRACK 06 AUDIO
    TITLE "5:cjc137_1559"
    INDEX 01 00:02:36
  TRACK 07 AUDIO
    TITLE "0:"
    INDEX 01 00:03:41
  TRACK 08 AUDIO
    TITLE "4:cjc137_1560"
    INDEX 01 00:04:52
  TRACK 09 AUDIO
    TITLE "0:"
    INDEX 01 00:06:08
  TRACK 10 AUDIO
    TITLE "6:cjc137_1561"
    INDEX 01 00:06:14
  TRACK 11 AUDIO
    TITLE "0:"
    INDEX 01 00:07:47
  TRACK 12 AUDIO
    TITLE "5:cjc137_1562"
    INDEX 01 00:07:54
  TRACK 13 AUDIO
    TITLE "0:"
    INDEX 01 00:09:10
  TRACK 14 AUDIO
    TITLE "4:cjc137_1563"
    INDEX 01 00:10:19
  TRACK 15 AUDIO
    TITLE "0:"
    INDEX 01 00:11:25
  TRACK 16 AUDIO
    TITLE "6:cjc137_1564"
    INDEX 01 00:11:33
  TRACK 17 AUDIO
    TITLE "0:"
    INDEX 01 00:12:22
  TRACK 18 AUDIO
    TITLE "5:cjc137_1565"
    INDEX 01 00:12:26
  TRACK 19 AUDIO
    TITLE "0:"
    INDEX 01 00:13:35
  TRACK 20 AUDIO
    TITLE "4:cjc137_1566"
    INDEX 01 00:14:41
  TRACK 21 AUDIO
    TITLE "0:"
    INDEX 01 00:15:40
  TRACK 22 AUDIO
    TITLE "6:cjc137_1567"
    INDEX 01 00:15:50
  TRACK 23 AUDIO
    TITLE "0:"
    INDEX 01 00:17:29
  TRACK 24 AUDIO
    TITLE "5:cjc137_1568"
    INDEX 01 00:17:35
  TRACK 25 AUDIO
    TITLE "0:"
    INDEX 01 00:18:37
  TRACK 26 AUDIO
    TITLE "4:cjc137_1569"
    INDEX 01 00:19:46
  TRACK 27 AUDIO
    TITLE "0:"
    INDEX 01 00:20:47
  TRACK 28 AUDIO
    TITLE "6:cjc137_1570"
    INDEX 01 00:20:55
  TRACK 29 AUDIO
    TITLE "0:"
    INDEX 01 00:21:68
  TRACK 30 AUDIO
    TITLE "5:cjc137_1571"
    INDEX 01 00:22:03
  TRACK 31 AUDIO
    TITLE "0:"
    INDEX 01 00:23:04
  TRACK 32 AUDIO
    TITLE "4:cjc137_1572"
    INDEX 01 00:24:14
  TRACK 33 AUDIO
    TITLE "0:"
    INDEX 01 00:25:13
  TRACK 34 AUDIO
    TITLE "6:cjc137_1573"
    INDEX 01 00:25:23
  TRACK 35 AUDIO
    TITLE "0:"
    INDEX 01 00:26:18
  TRACK 36 AUDIO
    TITLE "5:cjc137_1574"
    INDEX 01 00:26:26
  TRACK 37 AUDIO
    TITLE "0:"
    INDEX 01 00:27:26
  TRACK 38 AUDIO
    TITLE "4:cjc137_1575"
    INDEX 01 00:28:37
  TRACK 39 AUDIO
    TITLE "0:"
    INDEX 01 00:29:58
  TRACK 40 AUDIO
    TITLE "6:cjc137_1576"
    INDEX 01 00:29:66
  TRACK 41 AUDIO
    TITLE "0:"
    INDEX 01 00:31:31
  TRACK 42 AUDIO
    TITLE "5:cjc137_1577"
    INDEX 01 00:31:41
  TRACK 43 AUDIO
    TITLE "0:"
    INDEX 01 00:32:62
  TRACK 44 AUDIO
    TITLE "4:cjc137_1578"
    INDEX 01 00:33:73
  TRACK 45 AUDIO
    TITLE "0:"
    INDEX 01 00:35:14
  TRACK 46 AUDIO
    TITLE "6:cjc137_1579"
    INDEX 01 00:35:29
  TRACK 47 AUDIO
    TITLE "0:"
    INDEX 01 00:36:42
  TRACK 48 AUDIO
    TITLE "5:cjc137_1580"
    INDEX 01 00:36:52
  TRACK 49 AUDIO
    TITLE "0:"
    INDEX 01 00:37:67
  TRACK 50 AUDIO
    TITLE "4:cjc137_1581"
    INDEX 01 00:39:05
  TRACK 51 AUDIO
    TITLE "0:"
    INDEX 01 00:40:11
  TRACK 52 AUDIO
    TITLE "6:cjc137_1582"
    INDEX 01 00:40:21
  TRACK 53 AUDIO
    TITLE "0:"
    INDEX 01 00:41:47
  TRACK 54 AUDIO
    TITLE "5:cjc137_1583"
    INDEX 01 00:41:53
  TRACK 55 AUDIO
    TITLE "0:"
    INDEX 01 00:42:59
  TRACK 56 AUDIO
    TITLE "4:cjc137_1584"
    INDEX 01 00:43:68
  TRACK 57 AUDIO
    TITLE "0:"
    INDEX 01 00:45:02
  TRACK 58 AUDIO
    TITLE "6:cjc137_1585"
    INDEX 01 00:45:08
  TRACK 59 AUDIO
    TITLE "0:"
    INDEX 01 00:45:71
  TRACK 60 AUDIO
    TITLE "5:cjc137_1586"
    INDEX 01 00:46:06
  TRACK 61 AUDIO
    TITLE "0:"
    INDEX 01 00:47:11
  TRACK 62 AUDIO
    TITLE "4:cjc137_1587"
    INDEX 01 00:48:20
  TRACK 63 AUDIO
    TITLE "0:"
    INDEX 01 00:49:27
  TRACK 64 AUDIO
    TITLE "6:cjc137_1588"
    INDEX 01 00:49:35
  TRACK 65 AUDIO
    TITLE "0:"
    INDEX 01 00:50:48
  TRACK 66 AUDIO
    TITLE "5:cjc137_1589"
    INDEX 01 00:50:58
  TRACK 67 AUDIO
    TITLE "0:"
    INDEX 01 00:51:65
  TRACK 68 AUDIO
    TITLE "4:cjc137_1590"
    INDEX 01 00:52:71
  TRACK 69 AUDIO
    TITLE "0:"
    INDEX 01 00:54:05
  TRACK 70 AUDIO
    TITLE "6:cjc137_1591"
    INDEX 01 00:54:17
  TRACK 71 AUDIO
    TITLE "0:"
    INDEX 01 00:55:20
  TRACK 72 AUDIO
    TITLE "5:cjc137_1592"
    INDEX 01 00:55:30
  TRACK 73 AUDIO
    TITLE "0:"
    INDEX 01 00:56:41
